<svg xmlns:xlink="http://www.w3.org/1999/xlink" xmlns="http://www.w3.org/2000/svg" viewBox="0 0 350 223.42126094981654" preserveAspectRatio="xMidYMid meet" class="css-grg60t" id="bhhdaghd" width="350"  height="223.42126094981654" ><defs id="SvgjsDefs1175"></defs><g id="SvgjsG1176" featurekey="1p4tPl-0" transform="matrix(1.5730337078651686,0,0,1.5730337078651686,96.34831460674157,-7.865168539325843)" fill="#111111"><path xmlns="http://www.w3.org/2000/svg" d="M25.8,25.1c-3,0-5.5,2.5-5.5,5.5c0,3,2.5,5.5,5.5,5.5s5.5-2.5,5.5-5.5C31.3,27.6,28.7,25.1,25.8,25.1z   M25.8,39.7c-5,0-9-4.1-9-9.1s4.1-9.1,9-9.1c5,0,9,4.1,9,9.1S30.7,39.7,25.8,39.7z M74.2,25.8c-3,0-5.5,2.5-5.5,5.5  c0,3,2.5,5.5,5.5,5.5c3,0,5.5-2.5,5.5-5.5C79.7,28.3,77.2,25.8,74.2,25.8z M74.2,40.4c-5,0-9-4.1-9-9.1c0-5,4.1-9.1,9-9.1  c5,0,9,4.1,9,9.1C83.3,36.3,79.2,40.4,74.2,40.4z M10.2,53.1v14.2l9.4,5.5V55.5c0-2.9,1.9-5.5,5.2-7.7  C15.2,48.2,10.2,51.6,10.2,53.1z M48.6,90.3l24.6-13.9V55.5c0-3-8.4-8.6-24.4-8.6s-24.4,5.6-24.4,8.6v19.9L48.6,90.3z M89.8,67.6  V53.4c0-1.6-5.5-5.3-16.2-5.3c-0.2,0-0.4,0-0.5,0c3,2.1,4.8,4.6,4.8,7.4v18.4L89.8,67.6z M94.5,53.4v17L75,80.7L51,94.4  c-0.8,0.4-1.6,0.6-2.4,0.6c-0.8,0-1.7-0.2-2.4-0.6L25,81.4L5.5,70v-17c0-5.7,9-10,20.9-10c3.4,0,7.6,0,9.7,0.4l0,0.1  c3.8-0.8,8.1-1.3,12.7-1.3c5.9,0,11.4,0.8,16,2.1c2.6-0.5,6.2-0.9,8.9-0.9C85.5,43.4,94.5,47.7,94.5,53.4z M50,35.8  c-8.7,0-15.7-6.9-15.7-15.4C34.3,11.9,41.3,5,50,5s15.7,6.9,15.7,15.4C65.7,28.9,58.7,35.8,50,35.8z M50,9.7c6.1,0,11,4.8,11,10.7  c0,5.9-5,10.7-11,10.7c-6.1,0-11-4.8-11-10.7C39,14.5,43.9,9.7,50,9.7" style="fill-rule: evenodd; clip-rule: evenodd;" fill="#111111"></path></g><g id="SvgjsG1177" featurekey="dYASrj-0" transform="matrix(4.044688432506017,0,0,4.044688432506017,-2.132765657725189,141.7765578374699)" fill="#111111"><path d="M9.4531 6.191000000000001 l0 1.748 l-3.4961 0 l0 12.061 l-1.9238 0 l0 -12.061 l-3.5059 0 l0 -1.748 l8.9258 0 z M20.234468749999998 14.9805 l-0.029297 0.49805 l-7.4902 0 c0.068359 2.1387 1.416 3.1738 3.0176 3.1738 c1.1523 0 2.1094 -0.625 2.5977 -1.6699 l1.6992 0.33203 c-0.68359 1.7969 -2.3145 2.8711 -4.2773 2.8711 c-2.8711 0 -4.873 -1.8555 -4.873 -5.0195 s2.0508 -5.0293 4.8145 -5.0293 c2.627 0 4.5313 1.582 4.541 4.8438 z M15.70316875 11.5625 c-1.4941 0 -2.6172 0.80078 -2.9102 2.4902 l5.5566 0 c-0.15625 -1.6797 -1.2207 -2.4902 -2.6465 -2.4902 z M26.86528125 20.17578 c-2.8125 0 -4.8926 -2.002 -4.8926 -5.0195 s2.0801 -5.0195 4.8926 -5.0195 c2.1875 0 3.9063 1.1914 4.4824 3.2617 l-1.748 0.26367 c-0.42969 -1.2891 -1.4746 -1.9824 -2.7539 -1.9824 c-1.7188 0 -2.998 1.3672 -2.998 3.4766 c0 2.0996 1.2793 3.4766 2.998 3.4766 c1.2793 0 2.3242 -0.69336 2.7539 -1.9824 l1.748 0.26367 c-0.57617 2.0605 -2.3242 3.2617 -4.4824 3.2617 z M38.593778125 10.1367 c1.9629 0 3.3203 1.1816 3.3203 3.4961 l0 6.3672 l-1.8848 0 l0 -6.0254 c0 -1.6602 -0.9375 -2.2754 -2.0508 -2.2754 c-1.2305 0 -2.334 0.74219 -2.3438 2.5879 l0 5.7129 l-1.875 0 l0 -15 l1.875 0 l0 6.5723 c0.625 -0.9082 1.6602 -1.4355 2.959 -1.4355 z M49.8437375 10.1367 c2.041 0 3.3887 1.1816 3.3887 3.3496 l0 6.5137 l-1.8848 0 l0 -6.0938 c0 -1.5918 -0.94727 -2.207 -2.041 -2.207 c-1.2891 0 -2.3438 0.78125 -2.3535 2.5879 l0 5.7129 l-1.875 0 l0 -9.668 l1.875 0 l0 1.1914 c0.625 -0.87891 1.6406 -1.3867 2.8906 -1.3867 z M57.3632625 8.193 c-0.66406 0 -1.2305 -0.54688 -1.2305 -1.2207 s0.56641 -1.2109 1.2305 -1.2109 c0.6543 0 1.2109 0.53711 1.2109 1.2109 s-0.55664 1.2207 -1.2109 1.2207 z M56.4062625 20 l0 -9.668 l1.8848 0 l0 9.668 l-1.8848 0 z M64.824203125 20 c-1.6309 0 -2.6367 -0.97656 -2.6367 -2.6953 l0 -5.498 l-1.9727 0 l0 -1.4746 l0.71289 0 c1.0059 0 1.416 -0.41992 1.416 -1.543 l0 -1.6699 l1.7285 0 l0 3.2129 l2.1875 0 l0 1.4746 l-2.1875 0 l0 5.3027 c0 0.92773 0.53711 1.416 1.2988 1.416 l0.88867 0 l0 1.4746 l-1.4355 0 z M72.80275625 20.18555 c-2.8223 0 -4.9512 -1.9238 -4.9512 -5.0293 c0 -3.0957 2.1094 -5.0195 4.9512 -5.0195 s4.9414 1.9238 4.9414 5.0195 c0 3.1055 -2.1094 5.0293 -4.9414 5.0293 z M72.78315625 18.6426 c1.7676 0 3.1055 -1.3672 3.1055 -3.4863 c0 -2.1094 -1.3379 -3.4766 -3.1055 -3.4766 c-1.748 0 -3.0664 1.3672 -3.0664 3.4766 c0 2.1191 1.3184 3.4863 3.0664 3.4863 z M83.417946875 20.18555 c-2.0703 0 -3.623 -0.91797 -3.9258 -2.6855 l1.6113 -0.45898 c0.23438 1.1523 1.1133 1.7578 2.3047 1.7578 c0.89844 0 1.8652 -0.3418 1.8359 -1.4063 c-0.029297 -1.1426 -1.3379 -1.3281 -2.8906 -1.8066 c-1.3184 -0.40039 -2.5977 -0.94727 -2.5977 -2.666 c0 -1.9141 1.5723 -2.7637 3.4766 -2.7637 c1.7773 0 3.2715 0.75195 3.584 2.5293 l-1.5137 0.37109 c-0.23438 -1.1035 -1.0938 -1.5625 -2.0605 -1.5625 c-0.85938 0 -1.748 0.35156 -1.748 1.2891 c0 1.0156 1.1426 1.25 2.3828 1.5723 c1.5137 0.38086 3.1836 0.91797 3.1836 2.959 c0 2.0801 -1.7285 2.8711 -3.6426 2.8711 z" fill="#111111"></path></g></svg>