<svg xmlns:xlink="http://www.w3.org/1999/xlink" xmlns="http://www.w3.org/2000/svg" class="css-ze2te4 css-qd6ojx" viewBox="0 0 140 141.57303370786516" width="140"  height="141.57303370786516" ><g transform="translate(-8.651685393258427, -7.865168539325843) scale(1.5730337078651686)" class="css-1e98oqk" fill="#FFFFFF"><path xmlns="http://www.w3.org/2000/svg" d="M25.8,25.1c-3,0-5.5,2.5-5.5,5.5c0,3,2.5,5.5,5.5,5.5s5.5-2.5,5.5-5.5C31.3,27.6,28.7,25.1,25.8,25.1z   M25.8,39.7c-5,0-9-4.1-9-9.1s4.1-9.1,9-9.1c5,0,9,4.1,9,9.1S30.7,39.7,25.8,39.7z M74.2,25.8c-3,0-5.5,2.5-5.5,5.5  c0,3,2.5,5.5,5.5,5.5c3,0,5.5-2.5,5.5-5.5C79.7,28.3,77.2,25.8,74.2,25.8z M74.2,40.4c-5,0-9-4.1-9-9.1c0-5,4.1-9.1,9-9.1  c5,0,9,4.1,9,9.1C83.3,36.3,79.2,40.4,74.2,40.4z M10.2,53.1v14.2l9.4,5.5V55.5c0-2.9,1.9-5.5,5.2-7.7  C15.2,48.2,10.2,51.6,10.2,53.1z M48.6,90.3l24.6-13.9V55.5c0-3-8.4-8.6-24.4-8.6s-24.4,5.6-24.4,8.6v19.9L48.6,90.3z M89.8,67.6  V53.4c0-1.6-5.5-5.3-16.2-5.3c-0.2,0-0.4,0-0.5,0c3,2.1,4.8,4.6,4.8,7.4v18.4L89.8,67.6z M94.5,53.4v17L75,80.7L51,94.4  c-0.8,0.4-1.6,0.6-2.4,0.6c-0.8,0-1.7-0.2-2.4-0.6L25,81.4L5.5,70v-17c0-5.7,9-10,20.9-10c3.4,0,7.6,0,9.7,0.4l0,0.1  c3.8-0.8,8.1-1.3,12.7-1.3c5.9,0,11.4,0.8,16,2.1c2.6-0.5,6.2-0.9,8.9-0.9C85.5,43.4,94.5,47.7,94.5,53.4z M50,35.8  c-8.7,0-15.7-6.9-15.7-15.4C34.3,11.9,41.3,5,50,5s15.7,6.9,15.7,15.4C65.7,28.9,58.7,35.8,50,35.8z M50,9.7c6.1,0,11,4.8,11,10.7  c0,5.9-5,10.7-11,10.7c-6.1,0-11-4.8-11-10.7C39,14.5,43.9,9.7,50,9.7" style="fill-rule: evenodd; clip-rule: evenodd;" fill="#111111"></path></g></svg>